<svg xmlns="http://www.w3.org/2000/svg" xmlns:xlink="http://www.w3.org/1999/xlink" width="500" zoomAndPan="magnify" viewBox="0 0 375 374.999991" height="500" preserveAspectRatio="xMidYMid meet" version="1.0"><defs><g/></defs><g fill="#e8e7e6" fill-opacity="0.4"><g transform="translate(56.202555, 238.364192)"><g><path d="M 159.5 -47.46875 C 159.5 -46.738281 158.488281 -45.578125 156.46875 -43.984375 C 154.445312 -42.398438 151.882812 -40.5625 148.78125 -38.46875 C 145.675781 -36.375 142.316406 -34.242188 138.703125 -32.078125 C 135.085938 -29.910156 131.691406 -27.957031 128.515625 -26.21875 C 125.335938 -24.488281 122.125 -22.71875 118.875 -20.90625 C 115.625 -19.101562 112.476562 -17.476562 109.4375 -16.03125 C 106.40625 -14.59375 103.550781 -13.398438 100.875 -12.453125 C 98.207031 -11.515625 95.863281 -11.046875 93.84375 -11.046875 C 91.382812 -11.046875 89.035156 -11.441406 86.796875 -12.234375 C 84.554688 -13.035156 82.53125 -14.117188 80.71875 -15.484375 C 78.914062 -16.859375 77.472656 -18.445312 76.390625 -20.25 C 75.304688 -22.0625 74.765625 -24.050781 74.765625 -26.21875 C 74.765625 -27.375 74.976562 -29.109375 75.40625 -31.421875 C 75.84375 -33.734375 76.492188 -36.296875 77.359375 -39.109375 C 78.234375 -41.929688 79.285156 -44.820312 80.515625 -47.78125 C 81.742188 -50.75 83.148438 -53.390625 84.734375 -55.703125 C 82.273438 -56.859375 79.601562 -57.976562 76.71875 -59.0625 C 73.832031 -60.144531 70.726562 -60.46875 67.40625 -60.03125 C 65.957031 -59.882812 64.222656 -59.554688 62.203125 -59.046875 C 60.179688 -58.546875 58.117188 -57.894531 56.015625 -57.09375 C 53.921875 -56.300781 51.898438 -55.507812 49.953125 -54.71875 C 48.003906 -53.925781 46.523438 -53.097656 45.515625 -52.234375 C 44.210938 -51.222656 42.476562 -49.523438 40.3125 -47.140625 C 38.144531 -44.753906 35.976562 -42.257812 33.8125 -39.65625 C 32.070312 -37.632812 30.515625 -35.71875 29.140625 -33.90625 C 27.773438 -32.101562 26.476562 -30.300781 25.25 -28.5 C 24.019531 -26.695312 22.789062 -24.851562 21.5625 -22.96875 C 20.332031 -21.09375 18.925781 -19.070312 17.34375 -16.90625 C 16.1875 -15.164062 14.992188 -13.285156 13.765625 -11.265625 C 12.535156 -9.242188 11.378906 -7.363281 10.296875 -5.625 C 9.210938 -3.894531 8.195312 -2.453125 7.25 -1.296875 C 6.3125 -0.140625 5.554688 0.4375 4.984375 0.4375 C 3.390625 0.4375 1.867188 0.148438 0.421875 -0.421875 C -1.015625 -1.003906 -1.734375 -1.875 -1.734375 -3.03125 C -1.734375 -4.332031 -1.265625 -6.535156 -0.328125 -9.640625 C 0.609375 -12.742188 2.378906 -16.828125 4.984375 -21.890625 C 6.285156 -24.492188 7.945312 -27.347656 9.96875 -30.453125 C 11.988281 -33.554688 14.117188 -36.695312 16.359375 -39.875 C 18.597656 -43.050781 20.726562 -46.191406 22.75 -49.296875 C 24.78125 -52.410156 26.441406 -55.265625 27.734375 -57.859375 C 27.304688 -58.003906 26.765625 -58.039062 26.109375 -57.96875 C 25.460938 -57.894531 24.8125 -57.820312 24.15625 -57.75 C 23.507812 -57.675781 22.96875 -57.710938 22.53125 -57.859375 C 22.101562 -58.003906 21.890625 -58.441406 21.890625 -59.171875 C 21.890625 -59.171875 22.035156 -59.742188 22.328125 -60.890625 C 22.898438 -61.910156 23.835938 -63.285156 25.140625 -65.015625 C 26.441406 -66.742188 27.921875 -68.65625 29.578125 -70.75 C 31.242188 -72.851562 33.050781 -75.023438 35 -77.265625 C 36.945312 -79.503906 38.929688 -81.707031 40.953125 -83.875 C 43.554688 -86.613281 46.300781 -89.425781 49.1875 -92.3125 C 52.082031 -95.207031 54.828125 -97.914062 57.421875 -100.4375 C 60.023438 -102.96875 62.335938 -105.207031 64.359375 -107.15625 C 66.390625 -109.113281 67.835938 -110.597656 68.703125 -111.609375 C 93.984375 -139.054688 108.210938 -152.78125 111.390625 -152.78125 C 113.847656 -152.78125 115.078125 -151.410156 115.078125 -148.671875 C 115.078125 -144.484375 109.660156 -136.679688 98.828125 -125.265625 C 94.203125 -120.640625 89.648438 -116.335938 85.171875 -112.359375 C 80.691406 -108.390625 76.210938 -104.09375 71.734375 -99.46875 C 68.703125 -96.289062 65.738281 -93.003906 62.84375 -89.609375 C 59.957031 -86.210938 57.285156 -82.816406 54.828125 -79.421875 C 52.367188 -76.023438 50.203125 -72.738281 48.328125 -69.5625 C 46.453125 -66.382812 44.9375 -63.492188 43.78125 -60.890625 C 44.9375 -60.890625 47.03125 -61.394531 50.0625 -62.40625 C 53.09375 -63.425781 56.054688 -64.222656 58.953125 -64.796875 C 65.597656 -65.953125 69.28125 -66.53125 70 -66.53125 C 70.289062 -66.53125 71.519531 -66.382812 73.6875 -66.09375 C 75.851562 -65.8125 77.875 -65.378906 79.75 -64.796875 C 81.34375 -64.367188 82.820312 -63.753906 84.1875 -62.953125 C 85.5625 -62.160156 86.828125 -61.765625 87.984375 -61.765625 C 91.890625 -67.398438 95.863281 -72.925781 99.90625 -78.34375 C 103.945312 -83.757812 107.992188 -88.632812 112.046875 -92.96875 C 121.285156 -102.9375 128.90625 -110.410156 134.90625 -115.390625 C 140.90625 -120.378906 144.265625 -122.875 144.984375 -122.875 C 145.992188 -122.875 147.222656 -122.367188 148.671875 -121.359375 C 150.117188 -120.347656 150.84375 -119.484375 150.84375 -118.765625 C 150.84375 -117.171875 150.550781 -115.796875 149.96875 -114.640625 C 149.394531 -113.484375 148.597656 -112.363281 147.578125 -111.28125 C 146.566406 -110.195312 145.410156 -109.113281 144.109375 -108.03125 C 142.816406 -106.945312 141.445312 -105.679688 140 -104.234375 C 138.125 -102.359375 136.171875 -100.335938 134.140625 -98.171875 C 132.117188 -96.003906 130.132812 -93.875 128.1875 -91.78125 C 126.238281 -89.6875 124.503906 -87.769531 122.984375 -86.03125 C 121.472656 -84.300781 120.351562 -83.003906 119.625 -82.140625 C 115.4375 -77.222656 111.28125 -72.128906 107.15625 -66.859375 C 103.039062 -61.585938 99.539062 -56.710938 96.65625 -52.234375 C 92.320312 -45.734375 89.789062 -40.273438 89.0625 -35.859375 C 88.34375 -31.453125 87.984375 -28.238281 87.984375 -26.21875 C 87.984375 -23.332031 88.414062 -21.054688 89.28125 -19.390625 C 90.15625 -17.734375 91.675781 -16.90625 93.84375 -16.90625 C 96.007812 -16.90625 98.390625 -17.375 100.984375 -18.3125 C 103.585938 -19.25 106.367188 -20.472656 109.328125 -21.984375 C 112.296875 -23.503906 115.40625 -25.164062 118.65625 -26.96875 C 121.90625 -28.78125 125.191406 -30.554688 128.515625 -32.296875 C 131.253906 -33.734375 134.140625 -35.425781 137.171875 -37.375 C 140.210938 -39.332031 143.066406 -41.210938 145.734375 -43.015625 C 148.410156 -44.828125 150.6875 -46.34375 152.5625 -47.5625 C 154.445312 -48.789062 155.75 -49.40625 156.46875 -49.40625 C 158.488281 -49.40625 159.5 -48.757812 159.5 -47.46875 Z M 159.5 -47.46875 "/></g></g></g><g fill="#e8e7e6" fill-opacity="0.4"><g transform="translate(198.151461, 238.364192)"><g><path d="M 167.53125 -37.0625 C 167.53125 -36.625 167.019531 -36.148438 166 -35.640625 C 164.988281 -35.140625 163.722656 -34.5625 162.203125 -33.90625 C 160.691406 -33.257812 158.992188 -32.539062 157.109375 -31.75 C 155.234375 -30.957031 153.503906 -30.195312 151.921875 -29.46875 L 131.765625 -19.71875 C 129.304688 -18.5625 127.140625 -17.550781 125.265625 -16.6875 C 123.390625 -15.820312 121.507812 -14.988281 119.625 -14.1875 C 117.75 -13.394531 115.832031 -12.601562 113.875 -11.8125 C 111.925781 -11.019531 109.726562 -10.117188 107.28125 -9.109375 C 105.113281 -8.234375 102.941406 -7.328125 100.765625 -6.390625 C 98.597656 -5.453125 96.503906 -4.550781 94.484375 -3.6875 C 92.460938 -2.820312 90.65625 -2.132812 89.0625 -1.625 C 87.476562 -1.113281 86.253906 -0.859375 85.390625 -0.859375 C 83.796875 -0.859375 82.710938 -1.726562 82.140625 -3.46875 C 81.554688 -5.632812 83.867188 -7.875 89.078125 -10.1875 C 92.535156 -11.632812 95.023438 -12.828125 96.546875 -13.765625 C 98.066406 -14.703125 99.910156 -16.109375 102.078125 -17.984375 C 104.242188 -19.867188 106.046875 -21.675781 107.484375 -23.40625 C 108.929688 -25.132812 110.304688 -27.300781 111.609375 -29.90625 C 113.203125 -33.082031 114.210938 -35.9375 114.640625 -38.46875 C 115.078125 -41 115.296875 -43.925781 115.296875 -47.25 C 115.296875 -47.820312 115.003906 -48.46875 114.421875 -49.1875 C 113.847656 -49.914062 113.195312 -50.675781 112.46875 -51.46875 C 111.75 -52.257812 111.097656 -53.050781 110.515625 -53.84375 C 109.941406 -54.644531 109.65625 -55.40625 109.65625 -56.125 C 109.65625 -57.425781 110.085938 -58.867188 110.953125 -60.453125 C 111.828125 -62.046875 113.273438 -63.785156 115.296875 -65.671875 C 117.460938 -67.691406 119.664062 -69.492188 121.90625 -71.078125 C 124.144531 -72.671875 126.492188 -74.695312 128.953125 -77.15625 C 131.117188 -79.320312 133.210938 -81.664062 135.234375 -84.1875 C 137.253906 -86.71875 139.09375 -89.210938 140.75 -91.671875 C 142.414062 -94.128906 143.753906 -96.367188 144.765625 -98.390625 C 145.773438 -100.410156 146.28125 -102 146.28125 -103.15625 C 146.28125 -104.894531 146.171875 -106.125 145.953125 -106.84375 C 145.742188 -107.5625 144.84375 -107.921875 143.25 -107.921875 C 142.53125 -107.921875 140.613281 -107.378906 137.5 -106.296875 C 134.394531 -105.210938 130.023438 -102.503906 124.390625 -98.171875 C 119.628906 -94.410156 114.394531 -90.253906 108.6875 -85.703125 C 102.976562 -81.160156 97.125 -76.359375 91.125 -71.296875 C 85.132812 -66.242188 79.140625 -61.007812 73.140625 -55.59375 C 67.148438 -50.175781 61.476562 -44.789062 56.125 -39.4375 C 51.644531 -34.957031 46.226562 -29.613281 39.875 -23.40625 C 33.519531 -17.195312 26.441406 -9.753906 18.640625 -1.078125 C 16.472656 1.234375 14.410156 3.90625 12.453125 6.9375 C 10.503906 9.96875 8.375 12.640625 6.0625 14.953125 C 1.875 18.710938 -0.867188 20.300781 -2.171875 19.71875 C -5.054688 18.132812 -6.5 16.691406 -6.5 15.390625 C -6.5 14.378906 -5.488281 12.03125 -3.46875 8.34375 C -1.445312 4.65625 1.113281 0.359375 4.21875 -4.546875 C 7.332031 -9.460938 10.726562 -14.703125 14.40625 -20.265625 C 18.09375 -25.828125 21.597656 -30.992188 24.921875 -35.765625 C 27.234375 -39.085938 29.363281 -42.082031 31.3125 -44.75 C 33.257812 -47.425781 35.207031 -49.988281 37.15625 -52.4375 C 39.113281 -54.894531 41.101562 -57.460938 43.125 -60.140625 C 45.144531 -62.816406 47.382812 -65.816406 49.84375 -69.140625 C 52.726562 -73.035156 55.757812 -76.96875 58.9375 -80.9375 C 62.125 -84.914062 65.160156 -88.671875 68.046875 -92.203125 C 70.941406 -95.742188 73.472656 -98.890625 75.640625 -101.640625 C 77.804688 -104.390625 79.320312 -106.484375 80.1875 -107.921875 C 78.738281 -107.203125 76.601562 -105.648438 73.78125 -103.265625 C 70.96875 -100.878906 68.046875 -98.3125 65.015625 -95.5625 C 61.984375 -92.820312 59.128906 -90.1875 56.453125 -87.65625 C 53.785156 -85.132812 51.941406 -83.367188 50.921875 -82.359375 C 48.472656 -79.898438 45.1875 -76.71875 41.0625 -72.8125 C 36.945312 -68.914062 32.796875 -64.800781 28.609375 -60.46875 C 27.304688 -59.164062 26.078125 -57.71875 24.921875 -56.125 C 23.765625 -54.539062 22.828125 -53.75 22.109375 -53.75 C 21.523438 -53.75 20.941406 -53.851562 20.359375 -54.0625 C 19.785156 -54.28125 19.5 -54.96875 19.5 -56.125 C 19.5 -56.851562 21.304688 -59.347656 24.921875 -63.609375 C 28.535156 -67.867188 34.242188 -73.679688 42.046875 -81.046875 C 46.953125 -85.816406 52.765625 -91.523438 59.484375 -98.171875 C 66.203125 -104.816406 73.535156 -111.820312 81.484375 -119.1875 C 86.253906 -123.53125 91.3125 -128.15625 96.65625 -133.0625 C 102 -137.976562 107.054688 -142.566406 111.828125 -146.828125 C 116.597656 -151.085938 120.785156 -154.625 124.390625 -157.4375 C 128.003906 -160.257812 130.460938 -161.671875 131.765625 -161.671875 C 132.921875 -161.671875 133.929688 -161.054688 134.796875 -159.828125 C 135.660156 -158.597656 136.09375 -157.332031 136.09375 -156.03125 C 136.09375 -153 131.472656 -146.859375 122.234375 -137.609375 C 114.859375 -130.097656 108.820312 -123.453125 104.125 -117.671875 C 99.4375 -111.898438 96.082031 -107.785156 94.0625 -105.328125 C 91.3125 -102.148438 88.742188 -99.113281 86.359375 -96.21875 C 83.972656 -93.332031 81.550781 -90.367188 79.09375 -87.328125 C 76.644531 -84.296875 74.15625 -81.15625 71.625 -77.90625 C 69.09375 -74.65625 66.382812 -71.15625 63.5 -67.40625 C 60.175781 -63.207031 56.890625 -59.015625 53.640625 -54.828125 C 50.390625 -50.640625 47.28125 -46.59375 44.3125 -42.6875 C 41.351562 -38.789062 38.71875 -35.144531 36.40625 -31.75 C 34.09375 -28.351562 32.21875 -25.351562 30.78125 -22.75 C 33.375 -25.0625 36.765625 -28.238281 40.953125 -32.28125 C 45.148438 -36.332031 49.847656 -40.847656 55.046875 -45.828125 C 60.242188 -50.816406 65.769531 -56.019531 71.625 -61.4375 C 77.476562 -66.851562 83.363281 -72.09375 89.28125 -77.15625 C 92.320312 -79.75 95.71875 -82.5625 99.46875 -85.59375 C 103.226562 -88.632812 106.769531 -91.457031 110.09375 -94.0625 C 113.707031 -97.09375 117.609375 -100.125 121.796875 -103.15625 C 126.847656 -107.195312 131.539062 -110.082031 135.875 -111.8125 C 140.21875 -113.550781 144.050781 -114.421875 147.375 -114.421875 C 148.382812 -114.421875 149.535156 -114.273438 150.828125 -113.984375 C 152.128906 -113.703125 153.359375 -113.125 154.515625 -112.25 C 155.671875 -111.382812 156.609375 -110.226562 157.328125 -108.78125 C 158.054688 -107.34375 158.421875 -105.46875 158.421875 -103.15625 C 158.421875 -101.851562 158.019531 -100.117188 157.21875 -97.953125 C 156.425781 -95.785156 155.304688 -93.4375 153.859375 -90.90625 C 152.421875 -88.382812 150.796875 -85.820312 148.984375 -83.21875 C 147.179688 -80.613281 145.269531 -78.15625 143.25 -75.84375 C 139.78125 -71.945312 136.054688 -68.734375 132.078125 -66.203125 C 128.109375 -63.679688 124.679688 -61.40625 121.796875 -59.375 C 122.953125 -57.789062 124.429688 -55.984375 126.234375 -53.953125 C 128.046875 -51.929688 128.953125 -49.257812 128.953125 -45.9375 C 128.953125 -43.050781 128.585938 -40.304688 127.859375 -37.703125 C 127.140625 -35.109375 125.984375 -32.363281 124.390625 -29.46875 C 122.804688 -26.4375 121.179688 -24.050781 119.515625 -22.3125 C 117.859375 -20.582031 115.800781 -18.488281 113.34375 -16.03125 C 114.351562 -16.46875 115.867188 -17.191406 117.890625 -18.203125 C 119.910156 -19.210938 122.222656 -20.367188 124.828125 -21.671875 C 127.429688 -22.972656 130.175781 -24.304688 133.0625 -25.671875 C 135.957031 -27.046875 138.773438 -28.3125 141.515625 -29.46875 C 143.828125 -30.476562 146.242188 -31.5625 148.765625 -32.71875 C 151.296875 -33.875 153.679688 -34.957031 155.921875 -35.96875 C 158.160156 -36.988281 160.109375 -37.820312 161.765625 -38.46875 C 163.429688 -39.113281 164.554688 -39.4375 165.140625 -39.4375 C 165.710938 -39.4375 166.253906 -39.179688 166.765625 -38.671875 C 167.273438 -38.171875 167.53125 -37.632812 167.53125 -37.0625 Z M 167.53125 -37.0625 "/></g></g></g><g fill="#01081d" fill-opacity="1"><g transform="translate(46.624929, 228.786566)"><g><path d="M 159.5 -47.46875 C 159.5 -46.738281 158.488281 -45.578125 156.46875 -43.984375 C 154.445312 -42.398438 151.882812 -40.5625 148.78125 -38.46875 C 145.675781 -36.375 142.316406 -34.242188 138.703125 -32.078125 C 135.085938 -29.910156 131.691406 -27.957031 128.515625 -26.21875 C 125.335938 -24.488281 122.125 -22.71875 118.875 -20.90625 C 115.625 -19.101562 112.476562 -17.476562 109.4375 -16.03125 C 106.40625 -14.59375 103.550781 -13.398438 100.875 -12.453125 C 98.207031 -11.515625 95.863281 -11.046875 93.84375 -11.046875 C 91.382812 -11.046875 89.035156 -11.441406 86.796875 -12.234375 C 84.554688 -13.035156 82.53125 -14.117188 80.71875 -15.484375 C 78.914062 -16.859375 77.472656 -18.445312 76.390625 -20.25 C 75.304688 -22.0625 74.765625 -24.050781 74.765625 -26.21875 C 74.765625 -27.375 74.976562 -29.109375 75.40625 -31.421875 C 75.84375 -33.734375 76.492188 -36.296875 77.359375 -39.109375 C 78.234375 -41.929688 79.285156 -44.820312 80.515625 -47.78125 C 81.742188 -50.75 83.148438 -53.390625 84.734375 -55.703125 C 82.273438 -56.859375 79.601562 -57.976562 76.71875 -59.0625 C 73.832031 -60.144531 70.726562 -60.46875 67.40625 -60.03125 C 65.957031 -59.882812 64.222656 -59.554688 62.203125 -59.046875 C 60.179688 -58.546875 58.117188 -57.894531 56.015625 -57.09375 C 53.921875 -56.300781 51.898438 -55.507812 49.953125 -54.71875 C 48.003906 -53.925781 46.523438 -53.097656 45.515625 -52.234375 C 44.210938 -51.222656 42.476562 -49.523438 40.3125 -47.140625 C 38.144531 -44.753906 35.976562 -42.257812 33.8125 -39.65625 C 32.070312 -37.632812 30.515625 -35.71875 29.140625 -33.90625 C 27.773438 -32.101562 26.476562 -30.300781 25.25 -28.5 C 24.019531 -26.695312 22.789062 -24.851562 21.5625 -22.96875 C 20.332031 -21.09375 18.925781 -19.070312 17.34375 -16.90625 C 16.1875 -15.164062 14.992188 -13.285156 13.765625 -11.265625 C 12.535156 -9.242188 11.378906 -7.363281 10.296875 -5.625 C 9.210938 -3.894531 8.195312 -2.453125 7.25 -1.296875 C 6.3125 -0.140625 5.554688 0.4375 4.984375 0.4375 C 3.390625 0.4375 1.867188 0.148438 0.421875 -0.421875 C -1.015625 -1.003906 -1.734375 -1.875 -1.734375 -3.03125 C -1.734375 -4.332031 -1.265625 -6.535156 -0.328125 -9.640625 C 0.609375 -12.742188 2.378906 -16.828125 4.984375 -21.890625 C 6.285156 -24.492188 7.945312 -27.347656 9.96875 -30.453125 C 11.988281 -33.554688 14.117188 -36.695312 16.359375 -39.875 C 18.597656 -43.050781 20.726562 -46.191406 22.75 -49.296875 C 24.78125 -52.410156 26.441406 -55.265625 27.734375 -57.859375 C 27.304688 -58.003906 26.765625 -58.039062 26.109375 -57.96875 C 25.460938 -57.894531 24.8125 -57.820312 24.15625 -57.75 C 23.507812 -57.675781 22.96875 -57.710938 22.53125 -57.859375 C 22.101562 -58.003906 21.890625 -58.441406 21.890625 -59.171875 C 21.890625 -59.171875 22.035156 -59.742188 22.328125 -60.890625 C 22.898438 -61.910156 23.835938 -63.285156 25.140625 -65.015625 C 26.441406 -66.742188 27.921875 -68.65625 29.578125 -70.75 C 31.242188 -72.851562 33.050781 -75.023438 35 -77.265625 C 36.945312 -79.503906 38.929688 -81.707031 40.953125 -83.875 C 43.554688 -86.613281 46.300781 -89.425781 49.1875 -92.3125 C 52.082031 -95.207031 54.828125 -97.914062 57.421875 -100.4375 C 60.023438 -102.96875 62.335938 -105.207031 64.359375 -107.15625 C 66.390625 -109.113281 67.835938 -110.597656 68.703125 -111.609375 C 93.984375 -139.054688 108.210938 -152.78125 111.390625 -152.78125 C 113.847656 -152.78125 115.078125 -151.410156 115.078125 -148.671875 C 115.078125 -144.484375 109.660156 -136.679688 98.828125 -125.265625 C 94.203125 -120.640625 89.648438 -116.335938 85.171875 -112.359375 C 80.691406 -108.390625 76.210938 -104.09375 71.734375 -99.46875 C 68.703125 -96.289062 65.738281 -93.003906 62.84375 -89.609375 C 59.957031 -86.210938 57.285156 -82.816406 54.828125 -79.421875 C 52.367188 -76.023438 50.203125 -72.738281 48.328125 -69.5625 C 46.453125 -66.382812 44.9375 -63.492188 43.78125 -60.890625 C 44.9375 -60.890625 47.03125 -61.394531 50.0625 -62.40625 C 53.09375 -63.425781 56.054688 -64.222656 58.953125 -64.796875 C 65.597656 -65.953125 69.28125 -66.53125 70 -66.53125 C 70.289062 -66.53125 71.519531 -66.382812 73.6875 -66.09375 C 75.851562 -65.8125 77.875 -65.378906 79.75 -64.796875 C 81.34375 -64.367188 82.820312 -63.753906 84.1875 -62.953125 C 85.5625 -62.160156 86.828125 -61.765625 87.984375 -61.765625 C 91.890625 -67.398438 95.863281 -72.925781 99.90625 -78.34375 C 103.945312 -83.757812 107.992188 -88.632812 112.046875 -92.96875 C 121.285156 -102.9375 128.90625 -110.410156 134.90625 -115.390625 C 140.90625 -120.378906 144.265625 -122.875 144.984375 -122.875 C 145.992188 -122.875 147.222656 -122.367188 148.671875 -121.359375 C 150.117188 -120.347656 150.84375 -119.484375 150.84375 -118.765625 C 150.84375 -117.171875 150.550781 -115.796875 149.96875 -114.640625 C 149.394531 -113.484375 148.597656 -112.363281 147.578125 -111.28125 C 146.566406 -110.195312 145.410156 -109.113281 144.109375 -108.03125 C 142.816406 -106.945312 141.445312 -105.679688 140 -104.234375 C 138.125 -102.359375 136.171875 -100.335938 134.140625 -98.171875 C 132.117188 -96.003906 130.132812 -93.875 128.1875 -91.78125 C 126.238281 -89.6875 124.503906 -87.769531 122.984375 -86.03125 C 121.472656 -84.300781 120.351562 -83.003906 119.625 -82.140625 C 115.4375 -77.222656 111.28125 -72.128906 107.15625 -66.859375 C 103.039062 -61.585938 99.539062 -56.710938 96.65625 -52.234375 C 92.320312 -45.734375 89.789062 -40.273438 89.0625 -35.859375 C 88.34375 -31.453125 87.984375 -28.238281 87.984375 -26.21875 C 87.984375 -23.332031 88.414062 -21.054688 89.28125 -19.390625 C 90.15625 -17.734375 91.675781 -16.90625 93.84375 -16.90625 C 96.007812 -16.90625 98.390625 -17.375 100.984375 -18.3125 C 103.585938 -19.25 106.367188 -20.472656 109.328125 -21.984375 C 112.296875 -23.503906 115.40625 -25.164062 118.65625 -26.96875 C 121.90625 -28.78125 125.191406 -30.554688 128.515625 -32.296875 C 131.253906 -33.734375 134.140625 -35.425781 137.171875 -37.375 C 140.210938 -39.332031 143.066406 -41.210938 145.734375 -43.015625 C 148.410156 -44.828125 150.6875 -46.34375 152.5625 -47.5625 C 154.445312 -48.789062 155.75 -49.40625 156.46875 -49.40625 C 158.488281 -49.40625 159.5 -48.757812 159.5 -47.46875 Z M 159.5 -47.46875 "/></g></g></g><g fill="#01081d" fill-opacity="1"><g transform="translate(188.573834, 228.786566)"><g><path d="M 167.53125 -37.0625 C 167.53125 -36.625 167.019531 -36.148438 166 -35.640625 C 164.988281 -35.140625 163.722656 -34.5625 162.203125 -33.90625 C 160.691406 -33.257812 158.992188 -32.539062 157.109375 -31.75 C 155.234375 -30.957031 153.503906 -30.195312 151.921875 -29.46875 L 131.765625 -19.71875 C 129.304688 -18.5625 127.140625 -17.550781 125.265625 -16.6875 C 123.390625 -15.820312 121.507812 -14.988281 119.625 -14.1875 C 117.75 -13.394531 115.832031 -12.601562 113.875 -11.8125 C 111.925781 -11.019531 109.726562 -10.117188 107.28125 -9.109375 C 105.113281 -8.234375 102.941406 -7.328125 100.765625 -6.390625 C 98.597656 -5.453125 96.503906 -4.550781 94.484375 -3.6875 C 92.460938 -2.820312 90.65625 -2.132812 89.0625 -1.625 C 87.476562 -1.113281 86.253906 -0.859375 85.390625 -0.859375 C 83.796875 -0.859375 82.710938 -1.726562 82.140625 -3.46875 C 81.554688 -5.632812 83.867188 -7.875 89.078125 -10.1875 C 92.535156 -11.632812 95.023438 -12.828125 96.546875 -13.765625 C 98.066406 -14.703125 99.910156 -16.109375 102.078125 -17.984375 C 104.242188 -19.867188 106.046875 -21.675781 107.484375 -23.40625 C 108.929688 -25.132812 110.304688 -27.300781 111.609375 -29.90625 C 113.203125 -33.082031 114.210938 -35.9375 114.640625 -38.46875 C 115.078125 -41 115.296875 -43.925781 115.296875 -47.25 C 115.296875 -47.820312 115.003906 -48.46875 114.421875 -49.1875 C 113.847656 -49.914062 113.195312 -50.675781 112.46875 -51.46875 C 111.75 -52.257812 111.097656 -53.050781 110.515625 -53.84375 C 109.941406 -54.644531 109.65625 -55.40625 109.65625 -56.125 C 109.65625 -57.425781 110.085938 -58.867188 110.953125 -60.453125 C 111.828125 -62.046875 113.273438 -63.785156 115.296875 -65.671875 C 117.460938 -67.691406 119.664062 -69.492188 121.90625 -71.078125 C 124.144531 -72.671875 126.492188 -74.695312 128.953125 -77.15625 C 131.117188 -79.320312 133.210938 -81.664062 135.234375 -84.1875 C 137.253906 -86.71875 139.09375 -89.210938 140.75 -91.671875 C 142.414062 -94.128906 143.753906 -96.367188 144.765625 -98.390625 C 145.773438 -100.410156 146.28125 -102 146.28125 -103.15625 C 146.28125 -104.894531 146.171875 -106.125 145.953125 -106.84375 C 145.742188 -107.5625 144.84375 -107.921875 143.25 -107.921875 C 142.53125 -107.921875 140.613281 -107.378906 137.5 -106.296875 C 134.394531 -105.210938 130.023438 -102.503906 124.390625 -98.171875 C 119.628906 -94.410156 114.394531 -90.253906 108.6875 -85.703125 C 102.976562 -81.160156 97.125 -76.359375 91.125 -71.296875 C 85.132812 -66.242188 79.140625 -61.007812 73.140625 -55.59375 C 67.148438 -50.175781 61.476562 -44.789062 56.125 -39.4375 C 51.644531 -34.957031 46.226562 -29.613281 39.875 -23.40625 C 33.519531 -17.195312 26.441406 -9.753906 18.640625 -1.078125 C 16.472656 1.234375 14.410156 3.90625 12.453125 6.9375 C 10.503906 9.96875 8.375 12.640625 6.0625 14.953125 C 1.875 18.710938 -0.867188 20.300781 -2.171875 19.71875 C -5.054688 18.132812 -6.5 16.691406 -6.5 15.390625 C -6.5 14.378906 -5.488281 12.03125 -3.46875 8.34375 C -1.445312 4.65625 1.113281 0.359375 4.21875 -4.546875 C 7.332031 -9.460938 10.726562 -14.703125 14.40625 -20.265625 C 18.09375 -25.828125 21.597656 -30.992188 24.921875 -35.765625 C 27.234375 -39.085938 29.363281 -42.082031 31.3125 -44.75 C 33.257812 -47.425781 35.207031 -49.988281 37.15625 -52.4375 C 39.113281 -54.894531 41.101562 -57.460938 43.125 -60.140625 C 45.144531 -62.816406 47.382812 -65.816406 49.84375 -69.140625 C 52.726562 -73.035156 55.757812 -76.96875 58.9375 -80.9375 C 62.125 -84.914062 65.160156 -88.671875 68.046875 -92.203125 C 70.941406 -95.742188 73.472656 -98.890625 75.640625 -101.640625 C 77.804688 -104.390625 79.320312 -106.484375 80.1875 -107.921875 C 78.738281 -107.203125 76.601562 -105.648438 73.78125 -103.265625 C 70.96875 -100.878906 68.046875 -98.3125 65.015625 -95.5625 C 61.984375 -92.820312 59.128906 -90.1875 56.453125 -87.65625 C 53.785156 -85.132812 51.941406 -83.367188 50.921875 -82.359375 C 48.472656 -79.898438 45.1875 -76.71875 41.0625 -72.8125 C 36.945312 -68.914062 32.796875 -64.800781 28.609375 -60.46875 C 27.304688 -59.164062 26.078125 -57.71875 24.921875 -56.125 C 23.765625 -54.539062 22.828125 -53.75 22.109375 -53.75 C 21.523438 -53.75 20.941406 -53.851562 20.359375 -54.0625 C 19.785156 -54.28125 19.5 -54.96875 19.5 -56.125 C 19.5 -56.851562 21.304688 -59.347656 24.921875 -63.609375 C 28.535156 -67.867188 34.242188 -73.679688 42.046875 -81.046875 C 46.953125 -85.816406 52.765625 -91.523438 59.484375 -98.171875 C 66.203125 -104.816406 73.535156 -111.820312 81.484375 -119.1875 C 86.253906 -123.53125 91.3125 -128.15625 96.65625 -133.0625 C 102 -137.976562 107.054688 -142.566406 111.828125 -146.828125 C 116.597656 -151.085938 120.785156 -154.625 124.390625 -157.4375 C 128.003906 -160.257812 130.460938 -161.671875 131.765625 -161.671875 C 132.921875 -161.671875 133.929688 -161.054688 134.796875 -159.828125 C 135.660156 -158.597656 136.09375 -157.332031 136.09375 -156.03125 C 136.09375 -153 131.472656 -146.859375 122.234375 -137.609375 C 114.859375 -130.097656 108.820312 -123.453125 104.125 -117.671875 C 99.4375 -111.898438 96.082031 -107.785156 94.0625 -105.328125 C 91.3125 -102.148438 88.742188 -99.113281 86.359375 -96.21875 C 83.972656 -93.332031 81.550781 -90.367188 79.09375 -87.328125 C 76.644531 -84.296875 74.15625 -81.15625 71.625 -77.90625 C 69.09375 -74.65625 66.382812 -71.15625 63.5 -67.40625 C 60.175781 -63.207031 56.890625 -59.015625 53.640625 -54.828125 C 50.390625 -50.640625 47.28125 -46.59375 44.3125 -42.6875 C 41.351562 -38.789062 38.71875 -35.144531 36.40625 -31.75 C 34.09375 -28.351562 32.21875 -25.351562 30.78125 -22.75 C 33.375 -25.0625 36.765625 -28.238281 40.953125 -32.28125 C 45.148438 -36.332031 49.847656 -40.847656 55.046875 -45.828125 C 60.242188 -50.816406 65.769531 -56.019531 71.625 -61.4375 C 77.476562 -66.851562 83.363281 -72.09375 89.28125 -77.15625 C 92.320312 -79.75 95.71875 -82.5625 99.46875 -85.59375 C 103.226562 -88.632812 106.769531 -91.457031 110.09375 -94.0625 C 113.707031 -97.09375 117.609375 -100.125 121.796875 -103.15625 C 126.847656 -107.195312 131.539062 -110.082031 135.875 -111.8125 C 140.21875 -113.550781 144.050781 -114.421875 147.375 -114.421875 C 148.382812 -114.421875 149.535156 -114.273438 150.828125 -113.984375 C 152.128906 -113.703125 153.359375 -113.125 154.515625 -112.25 C 155.671875 -111.382812 156.609375 -110.226562 157.328125 -108.78125 C 158.054688 -107.34375 158.421875 -105.46875 158.421875 -103.15625 C 158.421875 -101.851562 158.019531 -100.117188 157.21875 -97.953125 C 156.425781 -95.785156 155.304688 -93.4375 153.859375 -90.90625 C 152.421875 -88.382812 150.796875 -85.820312 148.984375 -83.21875 C 147.179688 -80.613281 145.269531 -78.15625 143.25 -75.84375 C 139.78125 -71.945312 136.054688 -68.734375 132.078125 -66.203125 C 128.109375 -63.679688 124.679688 -61.40625 121.796875 -59.375 C 122.953125 -57.789062 124.429688 -55.984375 126.234375 -53.953125 C 128.046875 -51.929688 128.953125 -49.257812 128.953125 -45.9375 C 128.953125 -43.050781 128.585938 -40.304688 127.859375 -37.703125 C 127.140625 -35.109375 125.984375 -32.363281 124.390625 -29.46875 C 122.804688 -26.4375 121.179688 -24.050781 119.515625 -22.3125 C 117.859375 -20.582031 115.800781 -18.488281 113.34375 -16.03125 C 114.351562 -16.46875 115.867188 -17.191406 117.890625 -18.203125 C 119.910156 -19.210938 122.222656 -20.367188 124.828125 -21.671875 C 127.429688 -22.972656 130.175781 -24.304688 133.0625 -25.671875 C 135.957031 -27.046875 138.773438 -28.3125 141.515625 -29.46875 C 143.828125 -30.476562 146.242188 -31.5625 148.765625 -32.71875 C 151.296875 -33.875 153.679688 -34.957031 155.921875 -35.96875 C 158.160156 -36.988281 160.109375 -37.820312 161.765625 -38.46875 C 163.429688 -39.113281 164.554688 -39.4375 165.140625 -39.4375 C 165.710938 -39.4375 166.253906 -39.179688 166.765625 -38.671875 C 167.273438 -38.171875 167.53125 -37.632812 167.53125 -37.0625 Z M 167.53125 -37.0625 "/></g></g></g></svg>